<svg width="292" height="89" viewBox="0 0 292 89" fill="none" xmlns="http://www.w3.org/2000/svg">
<path d="M72.84 64.168C72.5413 65.1067 71.8587 65.576 70.792 65.576C69.768 65.576 68.5947 65 67.272 63.848C68.552 60.0933 71.2613 54.056 75.4 45.736C79.5387 37.3733 82.2267 31.1227 83.464 26.984C83.6347 26.3013 83.72 25.832 83.72 25.576C83.72 24.936 83.2507 23.9547 82.312 22.632L81.8 21.928L81.928 21.096C85.5547 20.072 89.5653 19.56 93.96 19.56L97.864 19.816C98.3333 20.456 98.696 21.4373 98.952 22.76C99.6347 26.0027 99.976 34.344 99.976 47.784C99.976 52.9893 100.424 56.6587 101.32 58.792C101.661 59.6027 102.003 60.008 102.344 60.008C102.685 60.008 103.731 59.5813 105.48 58.728L106.312 58.344L107.592 60.648C105.971 62.2267 104.157 63.4853 102.152 64.424C100.189 65.32 98.376 65.768 96.712 65.768C92.4027 65.768 90.248 62.4187 90.248 55.72V50.664C89.1387 50.408 87.4533 50.28 85.192 50.28C82.9307 50.28 80.456 50.4933 77.768 50.92C75.6347 55.8693 73.992 60.2853 72.84 64.168ZM90.376 46.312L90.44 38.888C90.44 32.4027 90.1627 28.008 89.608 25.704C89.2667 25.704 89.0107 25.7467 88.84 25.832C87.6453 29.1173 86.5147 31.912 85.448 34.216C84.424 36.4773 83.2933 38.9093 82.056 41.512C80.8613 44.072 80.1147 45.672 79.816 46.312H90.376ZM138.131 61.096C134.504 64.2107 131.304 65.768 128.531 65.768C125.8 65.768 124.222 64.4027 123.795 61.672C122.515 62.952 121.086 63.9547 119.507 64.68C117.928 65.4053 116.542 65.768 115.347 65.768C113.299 65.768 111.55 64.872 110.099 63.08C108.648 61.288 107.923 58.5147 107.923 54.76C107.923 49.128 109.118 44.712 111.507 41.512C113.896 38.2693 116.584 36.648 119.571 36.648C122.6 36.648 125.139 37.3307 127.187 38.696C128.51 31.784 129.171 26.344 129.171 22.376L128.851 19.688C132.051 18.5787 135.187 18.024 138.259 18.024C138.6 18.7493 138.771 19.5813 138.771 20.52C138.771 23.6347 137.832 29.9707 135.955 39.528C134.078 49.0427 133.139 55.5067 133.139 58.92C133.139 59.944 133.374 60.456 133.843 60.456C134.099 60.456 134.91 60.0507 136.275 59.24L136.915 58.856L138.131 61.096ZM122.707 40.424C121.214 40.424 119.912 41.896 118.803 44.84C117.736 47.784 117.203 50.7067 117.203 53.608C117.203 56.4667 117.395 58.3013 117.779 59.112C118.206 59.9227 118.824 60.328 119.635 60.328C121.043 60.328 122.43 59.752 123.795 58.6C123.923 56.8933 124.883 51.2187 126.675 41.576C125.224 40.808 123.902 40.424 122.707 40.424ZM148.88 65.768C145.936 65.768 143.632 64.744 141.968 62.696C140.304 60.6053 139.472 57.704 139.472 53.992C139.472 49.256 140.731 45.1813 143.248 41.768C145.808 38.3547 149.328 36.648 153.808 36.648L156.112 36.776C156.837 36.392 157.648 36.2 158.544 36.2C161.915 36.2 163.6 39.3787 163.6 45.736C165.349 45.6507 167.12 45.416 168.912 45.032L169.936 44.776L170.32 47.272C168.912 47.8693 167.013 48.4027 164.624 48.872L163.344 49.128C162.533 53.608 160.891 57.512 158.416 60.84C155.941 64.1253 152.763 65.768 148.88 65.768ZM152.336 60.264C154.128 60.264 155.728 59.112 157.136 56.808C158.587 54.504 159.589 52.072 160.144 49.512C155.579 49.512 153.296 47.8053 153.296 44.392C153.296 43.0267 153.573 41.7467 154.128 40.552L154.448 39.912C154.277 39.8267 154.064 39.784 153.808 39.784C153.552 39.784 153.36 39.8267 153.232 39.912C152.165 40.5947 151.163 42.1947 150.224 44.712C149.285 47.2293 148.816 50.1093 148.816 53.352C148.816 57.96 149.989 60.264 152.336 60.264ZM186.14 37.416C186.054 38.4827 185.692 39.72 185.052 41.128C183.43 40.9573 181.894 40.872 180.444 40.872H179.292C177.329 50.3867 176.348 56.3173 176.348 58.664C176.348 59.9013 176.604 60.52 177.116 60.52C177.67 60.52 179.1 59.9867 181.404 58.92L182.556 61.032C178.758 64.1893 175.238 65.768 171.996 65.768C170.502 65.768 169.265 65.2987 168.284 64.36C167.345 63.4213 166.876 62.184 166.876 60.648C166.876 59.0693 167.046 57.2987 167.388 55.336C167.772 53.3733 168.284 50.984 168.924 48.168C169.564 45.3093 170.033 43.0053 170.332 41.256C168.753 41.384 167.58 41.512 166.812 41.64C166.726 41.128 166.684 40.4453 166.684 39.592C166.684 38.696 166.748 37.9707 166.876 37.416H170.908C171.249 35.112 171.42 32.936 171.42 30.888L171.356 28.904V28.712C174.684 27.56 177.82 26.984 180.764 26.984C180.934 27.8373 181.02 28.904 181.02 30.184C181.02 31.464 180.657 33.8747 179.932 37.416H186.14ZM184.727 53.928C184.727 48.5947 186.327 44.392 189.527 41.32C192.769 38.2053 196.439 36.648 200.535 36.648C203.052 36.648 205.121 37.2667 206.743 38.504C208.364 39.7413 209.175 41.4053 209.175 43.496C209.175 45.544 208.641 47.272 207.575 48.68C206.551 50.088 205.292 51.176 203.799 51.944C200.769 53.4373 197.996 54.376 195.479 54.76L193.943 54.952C194.241 58.9627 195.884 60.968 198.871 60.968C199.895 60.968 200.983 60.712 202.135 60.2C203.287 59.688 204.183 59.176 204.823 58.664L205.783 57.896L207.319 59.944C206.977 60.4133 206.295 61.032 205.271 61.8C204.247 62.568 203.287 63.208 202.391 63.72C199.916 65.0853 197.207 65.768 194.263 65.768C191.319 65.768 188.993 64.7227 187.286 62.632C185.58 60.5413 184.727 57.64 184.727 53.928ZM193.879 51.816C196.055 51.432 197.783 50.5147 199.062 49.064C200.343 47.6133 200.983 45.736 200.983 43.432C200.983 41.128 200.3 39.976 198.935 39.976C197.313 39.976 196.055 41.3627 195.159 44.136C194.305 46.8667 193.879 49.4267 193.879 51.816ZM227.185 47.272C226.033 47.272 225.158 47.2507 224.561 47.208C222.726 55.2293 221.702 60.7973 221.489 63.912C219.654 64.808 216.86 65.256 213.105 65.256C212.294 65.256 211.74 65.2347 211.441 65.192C211.74 62.6747 213.02 56.36 215.281 46.248C217.542 36.0933 218.673 29.6933 218.673 27.048C218.673 26.536 218.374 25.8747 217.777 25.064C217.222 24.2107 216.646 23.5067 216.049 22.952L215.217 22.12L215.409 21.16C222.577 20.0933 228.38 19.56 232.817 19.56C241.606 19.56 246.001 23.144 246.001 30.312C246.001 35.0907 244.422 39.1227 241.265 42.408C238.108 45.6507 233.414 47.272 227.185 47.272ZM226.161 42.984C229.446 42.984 231.921 41.7467 233.585 39.272C235.292 36.7973 236.145 33.4907 236.145 29.352C236.145 27.6453 235.825 26.2587 235.185 25.192C234.545 24.0827 233.606 23.528 232.369 23.528C231.558 23.528 230.556 23.6773 229.361 23.976C228.678 28.456 227.398 34.792 225.521 42.984H226.161ZM245.227 53.928C245.227 48.5947 246.827 44.392 250.027 41.32C253.269 38.2053 256.939 36.648 261.035 36.648C263.552 36.648 265.621 37.2667 267.243 38.504C268.864 39.7413 269.675 41.4053 269.675 43.496C269.675 45.544 269.141 47.272 268.075 48.68C267.051 50.088 265.792 51.176 264.299 51.944C261.269 53.4373 258.496 54.376 255.979 54.76L254.443 54.952C254.741 58.9627 256.384 60.968 259.371 60.968C260.395 60.968 261.483 60.712 262.635 60.2C263.787 59.688 264.683 59.176 265.323 58.664L266.283 57.896L267.819 59.944C267.477 60.4133 266.795 61.032 265.771 61.8C264.747 62.568 263.787 63.208 262.891 63.72C260.416 65.0853 257.707 65.768 254.763 65.768C251.819 65.768 249.493 64.7227 247.786 62.632C246.08 60.5413 245.227 57.64 245.227 53.928ZM254.379 51.816C256.555 51.432 258.283 50.5147 259.562 49.064C260.843 47.6133 261.483 45.736 261.483 43.432C261.483 41.128 260.8 39.976 259.435 39.976C257.813 39.976 256.555 41.3627 255.659 44.136C254.805 46.8667 254.379 49.4267 254.379 51.816ZM291.077 37.416C290.992 38.4827 290.629 39.72 289.989 41.128C288.368 40.9573 286.832 40.872 285.381 40.872H284.229C282.266 50.3867 281.285 56.3173 281.285 58.664C281.285 59.9013 281.541 60.52 282.053 60.52C282.608 60.52 284.037 59.9867 286.341 58.92L287.493 61.032C283.696 64.1893 280.176 65.768 276.933 65.768C275.44 65.768 274.202 65.2987 273.221 64.36C272.282 63.4213 271.813 62.184 271.813 60.648C271.813 59.0693 271.984 57.2987 272.325 55.336C272.709 53.3733 273.221 50.984 273.861 48.168C274.501 45.3093 274.97 43.0053 275.269 41.256C273.69 41.384 272.517 41.512 271.749 41.64C271.664 41.128 271.621 40.4453 271.621 39.592C271.621 38.696 271.685 37.9707 271.813 37.416H275.845C276.186 35.112 276.357 32.936 276.357 30.888L276.293 28.904V28.712C279.621 27.56 282.757 26.984 285.701 26.984C285.872 27.8373 285.957 28.904 285.957 30.184C285.957 31.464 285.594 33.8747 284.869 37.416H291.077Z" fill="#F0F0F7"/>
<path d="M9.37508 43.9999C12.2516 43.9999 14.5834 41.6681 14.5834 38.7916C14.5834 35.9151 12.2516 33.5833 9.37508 33.5833C6.4986 33.5833 4.16675 35.9151 4.16675 38.7916C4.16675 41.6681 6.4986 43.9999 9.37508 43.9999Z" fill="#F0F0F7"/>
<path d="M18.7501 35.6667C21.6266 35.6667 23.9584 33.3348 23.9584 30.4583C23.9584 27.5819 21.6266 25.25 18.7501 25.25C15.8736 25.25 13.5417 27.5819 13.5417 30.4583C13.5417 33.3348 15.8736 35.6667 18.7501 35.6667Z" fill="#F0F0F7"/>
<path d="M31.2501 35.6667C34.1266 35.6667 36.4584 33.3348 36.4584 30.4583C36.4584 27.5819 34.1266 25.25 31.2501 25.25C28.3736 25.25 26.0417 27.5819 26.0417 30.4583C26.0417 33.3348 28.3736 35.6667 31.2501 35.6667Z" fill="#F0F0F7"/>
<path d="M40.6251 43.9999C43.5016 43.9999 45.8334 41.6681 45.8334 38.7916C45.8334 35.9151 43.5016 33.5833 40.6251 33.5833C37.7486 33.5833 35.4167 35.9151 35.4167 38.7916C35.4167 41.6681 37.7486 43.9999 40.6251 43.9999Z" fill="#F0F0F7"/>
<path d="M36.125 49.9583C34.3125 47.8333 32.7917 46.0208 30.9583 43.8958C30 42.7708 28.7708 41.6458 27.3125 41.1458C27.0833 41.0625 26.8542 41 26.625 40.9583C26.1042 40.875 25.5417 40.875 25 40.875C24.4583 40.875 23.8958 40.875 23.3542 40.9792C23.125 41.0208 22.8958 41.0833 22.6667 41.1667C21.2083 41.6667 20 42.7917 19.0208 43.9167C17.2083 46.0417 15.6875 47.8542 13.8542 49.9792C11.125 52.7083 7.77085 55.7292 8.39585 59.9583C9.00001 62.0833 10.5208 64.1875 13.25 64.7917C14.7708 65.1042 19.625 63.875 24.7917 63.875H25.1667C30.3333 63.875 35.1875 65.0833 36.7083 64.7917C39.4375 64.1875 40.9583 62.0625 41.5625 59.9583C42.2083 55.7083 38.8542 52.6875 36.125 49.9583Z" fill="#F0F0F7"/>
</svg>
